<?xml version="1.0" standalone="no"?>
<!DOCTYPE svg PUBLIC "-//W3C//DTD SVG 20010904//EN"
 "http://www.w3.org/TR/2001/REC-SVG-20010904/DTD/svg10.dtd">
<svg version="1.0" xmlns="http://www.w3.org/2000/svg"
 width="1024.000000pt" height="1024.000000pt" viewBox="0 0 1024.000000 1024.000000"
 preserveAspectRatio="xMidYMid meet">

<g transform="translate(0.000000,1024.000000) scale(0.100000,-0.100000)"
fill="#000000" stroke="none">
<path d="M3201 8349 c-155 -18 -324 -83 -473 -182 -192 -128 -369 -368 -431
-585 l-22 -77 -3 -2170 c-2 -1533 0 -2199 8 -2267 25 -220 103 -396 246 -558
l49 -55 -40 29 c-22 17 -43 35 -47 40 -4 6 -8 7 -8 3 0 -15 87 -121 146 -178
33 -31 85 -83 116 -115 71 -72 84 -84 98 -84 5 0 9 -5 7 -12 -1 -6 7 -14 18
-16 11 -2 25 -9 30 -16 6 -7 22 -16 38 -20 15 -3 27 -13 27 -21 0 -8 9 -15 19
-15 11 0 22 -4 25 -9 3 -4 30 -16 61 -26 32 -10 60 -25 66 -37 8 -15 13 -17
25 -7 11 9 18 9 32 -3 9 -9 22 -13 29 -11 6 2 14 0 17 -6 4 -6 13 -8 21 -5 9
4 18 -3 24 -17 5 -13 10 -18 10 -11 1 15 73 16 88 1 8 -8 13 -8 17 0 4 6 12
11 17 11 6 0 7 -5 3 -11 -3 -6 1 -10 12 -9 11 1 21 1 24 0 20 -7 56 -5 62 4 5
7 8 7 8 -3 0 -10 3 -11 14 -2 11 9 15 7 19 -10 4 -16 9 -20 19 -12 18 13 59
14 75 1 9 -7 13 -7 13 1 0 8 8 10 21 6 40 -13 293 -14 308 -2 11 9 15 9 18 0
3 -7 18 -13 34 -13 16 0 29 -5 29 -12 0 -8 5 -6 10 4 6 10 18 14 30 11 11 -3
20 0 20 6 0 6 5 11 10 11 6 0 10 -7 10 -15 0 -13 3 -13 20 -3 15 10 27 10 50
1 16 -6 30 -8 30 -4 0 10 82 8 98 -2 8 -5 19 -3 28 4 12 10 17 10 23 1 5 -9
22 -9 68 0 54 10 63 9 78 -5 21 -21 26 -21 18 0 -5 13 -3 15 13 9 53 -21 50
-21 34 -1 -14 17 -13 18 5 10 11 -4 47 -7 80 -7 33 1 76 -3 97 -7 26 -6 45 -5
62 5 23 11 26 11 26 -3 0 -13 3 -13 15 -3 11 9 18 10 28 1 8 -6 17 -8 20 -5 9
9 102 8 117 -1 7 -4 16 -2 20 6 7 10 11 10 24 0 13 -11 22 -11 48 0 34 14 138
19 138 7 0 -13 38 -9 43 5 4 8 8 8 14 2 12 -15 223 -17 223 -2 0 7 4 6 10 -3
8 -12 11 -13 19 -1 7 11 10 11 15 0 5 -11 7 -11 12 -1 7 16 28 16 21 0 -3 -8
5 -14 19 -14 13 -1 24 2 24 7 0 5 9 9 21 9 11 0 17 -4 14 -10 -3 -5 1 -10 9
-10 9 0 16 4 16 9 0 5 9 7 21 4 12 -4 25 0 31 8 7 11 11 11 15 2 2 -7 14 -11
26 -8 52 11 126 12 131 1 3 -7 10 -4 20 8 14 17 16 18 16 3 0 -9 7 -17 15 -17
8 0 15 5 15 10 0 6 7 10 15 10 8 0 15 -6 15 -12 0 -10 3 -9 9 1 6 10 10 10 16
1 4 -6 17 -9 30 -6 13 3 27 2 30 -4 3 -5 12 -10 18 -10 8 0 7 3 -2 9 -9 6 1
10 32 12 25 2 43 1 40 -4 -2 -4 3 -10 12 -14 10 -3 21 0 25 7 4 7 15 10 23 7
9 -3 18 -1 21 6 3 9 5 9 5 0 1 -15 31 -18 31 -3 0 7 7 7 21 0 14 -8 29 -8 50
-1 23 8 30 7 39 -7 8 -15 9 -15 10 3 0 12 3 16 8 9 4 -5 18 -10 32 -10 14 0
28 5 32 10 5 7 8 6 8 -2 0 -7 4 -10 10 -7 5 3 19 1 31 -5 11 -6 28 -8 37 -4 9
4 23 6 30 5 8 -1 20 3 29 10 10 9 16 10 21 2 5 -8 37 -10 92 -8 47 2 87 5 90
6 16 5 37 3 48 -5 7 -5 12 -5 12 1 0 6 18 7 45 3 38 -6 45 -4 40 8 -4 11 0 13
17 8 23 -7 55 -9 112 -7 24 1 27 3 16 16 -7 9 -10 18 -6 22 3 3 6 1 6 -5 0
-17 152 -11 158 7 4 11 6 11 13 0 7 -11 9 -9 9 6 0 17 2 17 10 5 9 -13 11 -13
20 0 9 13 11 13 20 0 8 -13 10 -13 10 2 0 12 7 16 29 13 20 -3 31 1 35 12 4 9
9 13 12 10 8 -7 73 21 92 39 9 10 24 13 40 9 20 -5 23 -3 18 11 -5 13 -2 15
19 10 14 -4 25 -2 25 4 0 5 -4 10 -10 10 -5 0 -10 5 -10 12 0 9 3 9 12 0 16
-16 28 -15 28 1 0 7 14 21 30 30 16 10 30 24 30 32 0 15 34 30 49 21 11 -7 21
17 21 52 0 15 4 22 8 16 4 -7 15 -8 27 -3 19 7 19 8 1 8 -20 1 -20 1 0 16 10
8 15 15 9 15 -5 0 1 6 15 13 14 7 25 19 25 27 0 14 14 35 43 65 8 9 9 16 2 20
-16 10 -12 28 5 21 8 -3 15 -1 15 4 0 6 -8 10 -17 11 -11 0 -7 5 10 11 16 5
26 15 24 22 -15 35 -18 50 -9 37 5 -7 15 -10 22 -6 9 6 9 9 -1 15 -9 6 -8 12
5 25 13 13 14 20 5 31 -8 10 -7 17 5 29 18 19 21 35 6 35 -6 0 -7 6 -1 17 13
25 33 96 31 108 -1 6 -1 12 0 15 13 35 16 98 5 124 -5 10 -4 21 2 25 6 3 7 15
3 26 -4 11 -2 31 4 44 7 16 7 26 1 28 -6 2 -9 57 -8 140 5 296 1 533 -9 527
-4 -3 -6 40 -5 95 1 56 5 101 10 101 11 0 8 38 -3 45 -8 5 -7 11 1 21 6 7 8
22 4 31 -9 23 -12 112 -3 107 3 -2 8 32 10 76 3 72 -3 101 -15 68 -2 -7 -2 14
1 47 2 33 9 65 14 72 6 7 4 13 -4 16 -10 4 -10 8 2 16 8 6 10 11 4 11 -8 0
-10 27 -8 82 1 45 -2 90 -7 100 -7 13 -6 18 2 16 14 -3 18 38 6 65 -5 10 -4
17 3 17 7 0 9 8 5 21 -11 33 -12 202 -2 217 6 7 6 12 -1 12 -5 0 -10 10 -10
23 0 12 -3 36 -7 52 -5 21 -4 26 3 16 7 -9 9 5 7 44 -2 34 -9 61 -17 66 -11 7
-6 12 12 11 3 0 6 11 6 24 1 13 -2 24 -7 24 -5 0 -9 5 -9 11 0 5 4 8 9 4 6 -3
6 6 1 24 -4 16 -6 32 -3 34 10 10 13 77 3 77 -5 0 -10 5 -10 11 0 5 4 8 9 4 5
-3 12 -1 16 5 3 5 2 10 -3 10 -6 0 -8 260 -1 296 1 5 1 12 -1 17 -5 20 -2 96
4 106 4 6 4 17 -1 24 -9 15 -11 257 -1 251 3 -2 9 0 13 6 3 5 0 10 -8 10 -11
0 -14 13 -12 53 1 29 5 58 8 64 4 7 3 14 -2 18 -10 6 -9 90 0 100 3 2 3 28 -1
55 -4 28 -3 53 2 56 4 3 4 14 -2 24 -7 13 -7 21 0 25 6 4 7 12 3 18 -7 10 -9
358 -3 377 1 3 1 21 0 40 -1 19 -3 73 -5 120 -1 47 -3 87 -5 90 -1 3 -1 20 0
39 2 30 -1 33 -19 28 -12 -3 -21 -1 -21 4 0 5 9 9 20 9 11 0 20 5 20 11 0 6
-9 9 -20 6 -19 -5 -20 0 -20 91 0 189 -35 361 -97 487 -77 154 -217 320 -342
404 -79 54 -225 123 -311 147 -62 18 -153 19 -2040 20 -1086 1 -2008 -2 -2049
-7z m3841 -530 c29 -6 87 -27 128 -46 99 -47 222 -168 269 -263 65 -134 61 26
61 -2225 0 -2257 4 -2098 -61 -2231 -37 -74 -139 -189 -212 -237 -30 -20 -90
-49 -133 -64 l-79 -28 -1820 -3 c-2024 -3 -1923 -6 -2063 64 -144 71 -272 229
-319 394 -17 62 -18 156 -18 2090 0 2196 -3 2079 55 2205 60 131 155 229 287
294 126 63 7 59 2015 60 1297 1 1853 -2 1890 -10z m1005 -801 c-3 -8 -6 -5 -6
6 -1 11 2 17 5 13 3 -3 4 -12 1 -19z m10 -525 c-2 -16 -4 -5 -4 22 0 28 2 40
4 28 2 -13 2 -35 0 -50z m-10 -715 c-2 -13 -4 -3 -4 22 0 25 2 35 4 23 2 -13
2 -33 0 -45z m2 -328 c-4 -14 -7 22 -6 80 l0 105 7 -80 c3 -44 3 -91 -1 -105z
m5 -136 c-5 -54 -14 -55 -14 0 0 26 4 45 8 42 5 -3 7 -22 6 -42z m3 -331 c-3
-10 -5 -2 -5 17 0 19 2 27 5 18 2 -10 2 -26 0 -35z m-10 -140 c-3 -10 -5 -4
-5 12 0 17 2 24 5 18 2 -7 2 -21 0 -30z m0 -425 c-2 -13 -4 -3 -4 22 0 25 2
35 4 23 2 -13 2 -33 0 -45z m0 -520 c-3 -8 -6 -5 -6 6 -1 11 2 17 5 13 3 -3 4
-12 1 -19z m10 -190 c-2 -13 -4 -5 -4 17 -1 22 1 32 4 23 2 -10 2 -28 0 -40z
m0 -90 c-2 -13 -4 -5 -4 17 -1 22 1 32 4 23 2 -10 2 -28 0 -40z m10 -470 c-3
-7 -5 -2 -5 12 0 14 2 19 5 13 2 -7 2 -19 0 -25z m-1437 -1258 c0 -5 -4 -10
-10 -10 -5 0 -10 5 -10 10 0 6 5 10 10 10 6 0 10 -4 10 -10z"/>
<path d="M3370 7342 c-94 -5 -90 7 -90 -319 0 -270 1 -284 20 -303 20 -20 33
-20 1848 -20 1447 0 1832 3 1845 13 16 11 17 39 15 312 l-3 299 -25 13 c-19
10 -401 12 -1790 10 -971 -1 -1790 -3 -1820 -5z m3467 -354 c29 -27 30 -71 3
-98 -18 -18 -33 -20 -138 -20 -131 0 -148 6 -158 57 -5 26 -1 37 19 57 25 25
31 26 138 26 102 0 115 -2 136 -22z"/>
<path d="M4137 6352 c-119 -120 -217 -226 -217 -235 0 -15 648 -667 671 -675
9 -4 461 431 468 449 5 16 -669 679 -691 679 -7 0 -111 -98 -231 -218z"/>
<path d="M5167 5779 l-788 -790 -52 50 c-58 56 -72 61 -83 29 -4 -13 -58 -146
-120 -297 -63 -151 -112 -276 -110 -279 4 -3 489 276 536 308 13 9 12 13 -7
27 -13 8 -23 21 -23 27 0 7 69 80 153 162 l152 149 5 -445 c3 -245 7 -446 8
-448 1 -1 145 -1 320 0 l317 3 5 459 5 459 464 458 465 457 -18 27 c-23 35
-420 435 -432 435 -5 -1 -364 -356 -797 -791z"/>
<path d="M4900 3870 c-19 -19 -20 -33 -20 -320 l0 -301 25 -24 c27 -28 52 -31
81 -11 16 12 20 30 24 113 l5 98 60 -75 c122 -152 153 -172 195 -130 34 34 24
60 -60 165 -44 55 -80 103 -80 107 0 3 34 36 75 73 41 37 77 76 80 86 11 32
-20 69 -58 69 -27 0 -46 -14 -124 -92 l-93 -93 0 153 c0 149 -1 154 -25 177
-29 30 -58 32 -85 5z"/>
<path d="M5858 3853 c-19 -23 -218 -534 -225 -580 -4 -24 -1 -39 12 -53 40
-45 92 -9 131 90 l27 70 103 0 104 0 30 -52 c16 -29 44 -87 61 -128 17 -41 38
-83 47 -92 23 -26 67 -23 90 7 22 28 20 43 -12 119 -20 48 -20 56 -1 56 36 0
116 52 142 91 33 51 43 145 21 199 -21 50 -64 98 -109 120 -57 29 -152 27
-204 -4 l-39 -24 -28 73 c-16 40 -39 84 -53 99 -28 31 -74 35 -97 9z m122
-340 c0 -9 -19 -13 -65 -13 -36 0 -65 2 -65 4 0 3 13 35 46 114 l16 37 33 -65
c19 -36 34 -71 35 -77z m235 81 c91 -43 75 -180 -23 -200 -31 -6 -33 -5 -58
51 -15 32 -27 75 -28 94 -1 32 3 38 34 53 42 22 35 21 75 2z"/>
<path d="M3427 3842 c-10 -10 -17 -30 -17 -44 0 -43 27 -57 115 -60 l80 -3 5
-252 c5 -237 6 -253 25 -267 27 -21 48 -20 76 3 24 19 24 20 27 270 l3 251 74
0 c81 0 115 18 115 60 0 11 -9 29 -20 40 -19 19 -33 20 -243 20 -204 0 -225
-2 -240 -18z"/>
<path d="M4035 3708 c-34 -12 -62 -34 -76 -60 -7 -12 -3 -24 15 -45 23 -27 25
-27 70 -15 75 20 123 16 151 -13 14 -13 25 -28 25 -33 0 -4 -35 -8 -78 -7 -69
0 -83 -3 -120 -27 -54 -36 -74 -68 -80 -128 -12 -128 133 -219 250 -156 35 19
35 19 57 -3 24 -24 49 -27 77 -7 17 13 19 27 19 168 0 84 -4 170 -8 191 -10
47 -60 105 -112 128 -45 21 -141 24 -190 7z m155 -288 c28 -28 25 -64 -7 -90
-36 -28 -80 -23 -106 12 -17 23 -19 31 -9 53 21 45 88 59 122 25z"/>
<path d="M4520 3698 c-52 -27 -78 -60 -86 -110 -14 -83 25 -128 147 -173 86
-31 104 -50 79 -80 -18 -21 -84 -18 -130 5 -49 25 -82 25 -103 2 -23 -25 -21
-35 8 -70 34 -41 98 -65 170 -65 113 1 185 60 185 152 0 83 -38 121 -169 167
-58 20 -71 35 -50 60 13 16 45 15 127 -2 24 -5 38 -2 52 11 85 77 -110 164
-230 103z"/>
<path d="M6470 3701 c-6 -13 -10 -137 -10 -335 0 -303 1 -317 20 -336 27 -27
56 -25 86 5 24 24 25 31 22 115 -2 50 -2 90 0 90 2 0 17 -7 34 -16 79 -41 199
7 246 98 69 134 14 334 -105 385 -47 19 -113 16 -148 -7 -29 -19 -29 -19 -48
0 -24 27 -83 27 -97 1z m259 -122 c30 -28 41 -60 41 -122 0 -70 -25 -119 -68
-131 -27 -7 -38 -5 -60 11 -39 29 -52 60 -52 131 0 91 26 131 86 132 17 0 40
-9 53 -21z"/>
<path d="M8050 7230 c0 -5 7 -7 15 -4 8 4 15 8 15 10 0 2 -7 4 -15 4 -8 0 -15
-4 -15 -10z"/>
<path d="M8090 6229 c0 -5 5 -7 10 -4 6 3 10 8 10 11 0 2 -4 4 -10 4 -5 0 -10
-5 -10 -11z"/>
<path d="M8080 3735 c0 -8 2 -15 4 -15 2 0 6 7 10 15 3 8 1 15 -4 15 -6 0 -10
-7 -10 -15z"/>
<path d="M7610 2020 c0 -5 5 -10 10 -10 6 0 10 5 10 10 0 6 -4 10 -10 10 -5 0
-10 -4 -10 -10z"/>
<path d="M3078 1993 c7 -3 16 -2 19 1 4 3 -2 6 -13 5 -11 0 -14 -3 -6 -6z"/>
<path d="M5840 1870 c0 -5 7 -7 15 -4 8 4 15 8 15 10 0 2 -7 4 -15 4 -8 0 -15
-4 -15 -10z"/>
</g>
</svg>
